<svg width="29" height="29" viewBox="0 0 29 29" fill="none" xmlns="http://www.w3.org/2000/svg">
<g clip-path="url(#clip0_0_5049)">
<path d="M28.4622 24.0075L23.2271 18.9275C22.8879 18.5983 22.4403 18.422 21.9658 18.4281C21.8084 18.4305 21.6546 18.4535 21.5072 18.495L19.1438 16.2017C21.0143 13.3725 21.3925 9.77617 20.1545 6.62033L20.9654 5.35662C21.1704 5.40623 21.3841 5.43319 21.6041 5.43319C23.102 5.43319 24.3206 4.21457 24.3206 2.71671C24.3206 1.21891 23.102 0.00033874 21.6041 0.00033874C20.1063 0.00033874 18.8877 1.21891 18.8877 2.71671C18.8877 3.33658 19.0969 3.9082 19.4476 4.36586L19.1962 4.7577C18.9956 4.44895 18.7771 4.14768 18.5398 3.85564C16.7812 1.69191 14.2853 0.342561 11.5119 0.0560165C8.73831 -0.230472 6.01938 0.580169 3.85566 2.33869C1.69187 4.09716 0.342409 6.59308 0.0559206 9.36655C-0.200152 11.8454 0.420913 14.2804 1.81116 16.3147C0.757301 16.6885 0.00029952 17.6949 0.00029952 18.8753C0.00029952 20.3732 1.21887 21.5918 2.71667 21.5918C3.97925 21.5918 5.04335 20.7259 5.34649 19.5568C6.56971 20.2403 7.93067 20.6741 9.36639 20.8225C9.73184 20.8602 10.0962 20.8789 10.4587 20.8789C12.4829 20.8789 14.442 20.295 16.1361 19.1871L18.4783 21.436C18.378 21.6654 18.3267 21.9158 18.3306 22.1742C18.3377 22.6485 18.5285 23.0909 18.8676 23.4199L24.1028 28.5C24.4466 28.8336 24.8921 28.9996 25.3371 28.9996C25.8001 28.9996 26.2626 28.8199 26.6097 28.4623L28.4998 26.5144C29.1805 25.8129 29.1637 24.6884 28.4622 24.0075ZM21.6041 1.81284C22.1025 1.81284 22.5081 2.21833 22.5081 2.71677C22.5081 3.21526 22.1025 3.62081 21.6041 3.62081C21.1056 3.62081 20.7001 3.21526 20.7001 2.71677C20.7001 2.21833 21.1056 1.81284 21.6041 1.81284ZM20.0745 19.6303L19.6598 20.0577L17.5757 18.0566C17.7252 17.9167 17.8701 17.7735 18.0097 17.6267L20.0745 19.6303ZM1.85879 9.55278C2.09555 7.26087 3.21063 5.19836 4.99872 3.74519C6.55124 2.48335 8.44944 1.81222 10.4229 1.81222C10.7223 1.81222 11.0237 1.82768 11.3255 1.85889C13.6174 2.0957 15.68 3.21079 17.1332 4.99882C17.5111 5.46384 17.8323 5.95667 18.0981 6.46892L14.9181 11.4241C14.648 11.3339 14.3595 11.2843 14.0596 11.2843C13.7332 11.2843 13.4202 11.3422 13.13 11.4482L11.3475 9.5325C11.5251 9.17165 11.6252 8.7661 11.6252 8.3375C11.6252 6.83969 10.4066 5.62113 8.90874 5.62113C7.41093 5.62113 6.19237 6.83969 6.19237 8.3375C6.19237 8.97963 6.41683 9.57006 6.79072 10.0355L3.41867 15.4508C2.19314 13.7389 1.64056 11.6651 1.85879 9.55278ZM14.0596 13.0967C14.5581 13.0967 14.9636 13.5022 14.9636 14.0006C14.9636 14.4991 14.5581 14.9046 14.0596 14.9046C13.5612 14.9046 13.1557 14.4991 13.1557 14.0006C13.1557 13.5022 13.5612 13.0967 14.0596 13.0967ZM8.00487 8.33744C8.00487 7.839 8.41036 7.43351 8.90879 7.43351C9.40729 7.43351 9.81283 7.839 9.81283 8.33744C9.81283 8.83588 9.40729 9.24143 8.90879 9.24143C8.4103 9.24148 8.00487 8.83594 8.00487 8.33744ZM2.71673 19.7794C2.21829 19.7794 1.8128 19.3738 1.8128 18.8753C1.8128 18.3769 2.21829 17.9714 2.71673 17.9714C3.21516 17.9714 3.62071 18.3769 3.62071 18.8753C3.62071 19.3738 3.21516 19.7794 2.71673 19.7794ZM10.4553 19.0663C10.156 19.0663 9.85458 19.0508 9.55268 19.0196C7.71419 18.8297 6.02358 18.074 4.67644 16.8597L8.33061 10.9913C8.51701 11.0319 8.71032 11.0539 8.90874 11.0539C9.317 11.0539 9.7042 10.9628 10.052 10.8007L11.7305 12.6046C11.4849 13.0128 11.3433 13.4904 11.3433 14.0006C11.3433 15.4985 12.5618 16.7171 14.0596 16.7171C15.5575 16.7171 16.7761 15.4985 16.7761 14.0006C16.7761 13.4656 16.62 12.9667 16.3518 12.5458L18.8703 8.62132C19.5274 11.6933 18.48 15.0197 15.8795 17.1332C14.327 18.3951 12.4288 19.0663 10.4553 19.0663ZM25.3366 27.1716L20.1582 22.1467L21.9932 20.2556L27.1715 25.2806L25.3366 27.1716Z" fill="#5380EA"/>
</g>
<defs>
<clipPath id="clip0_0_5049">
<rect width="29" height="29" fill="white"/>
</clipPath>
</defs>
</svg>
