<svg width="24" height="24" viewBox="0 0 24 24" fill="none" xmlns="http://www.w3.org/2000/svg">
<path fill-rule="evenodd" clip-rule="evenodd" d="M9.42659 4.55804C5.66159 6.97604 3.57009 9.79004 3.15159 13.0015C2.50009 18 6.97009 20.4465 9.23509 18.2485C11.5001 16.05 10.1426 13.26 8.50259 12.497C6.86259 11.7345 5.85959 12 6.03459 10.9805C6.20959 9.96153 8.54259 7.13554 10.5926 5.81954C10.6652 5.75776 10.7116 5.6706 10.7222 5.57583C10.7328 5.48106 10.7068 5.38582 10.6496 5.30954L10.1426 4.65004C9.92259 4.36404 9.71159 4.37503 9.42659 4.55753V4.55804ZM19.3396 4.55804C15.5746 6.97604 13.4826 9.79054 13.0646 13.0015C12.4131 18 16.8831 20.4465 19.1481 18.2485C21.4131 16.05 20.0556 13.26 18.4151 12.497C16.7751 11.7345 15.7721 12 15.9471 10.9805C16.1221 9.96153 18.4556 7.13554 20.5056 5.81954C20.5782 5.75769 20.6244 5.6705 20.6349 5.57573C20.6454 5.48097 20.6194 5.38576 20.5621 5.30954L20.0551 4.65004C19.8351 4.36404 19.6241 4.37503 19.3396 4.55753V4.55804Z" fill="#2478FE"/>
</svg>
