<svg width="262" height="184" viewBox="0 0 262 184" fill="none" xmlns="http://www.w3.org/2000/svg">
<g filter="url(#filter0_d_0_5022)">
<mask id="path-1-inside-1_0_5022" fill="white">
<path d="M8 9C8 6.79087 9.79086 5 12 5H250C252.209 5 254 6.79086 254 9V169C254 171.209 252.209 173 250 173H12C9.79086 173 8 171.209 8 169V9Z"/>
</mask>
<path d="M8 9C8 6.79087 9.79086 5 12 5H250C252.209 5 254 6.79086 254 9V169C254 171.209 252.209 173 250 173H12C9.79086 173 8 171.209 8 169V9Z" fill="white"/>
<path d="M8 9C8 1.26801 14.268 -5 22 -5H240C247.732 -5 254 1.26801 254 9V15C254 15 252.209 15 250 15H12C9.79086 15 8 15 8 15V9ZM254 173H8H254ZM8 173V5V173ZM254 5V173V5Z" fill="#5380EA" mask="url(#path-1-inside-1_0_5022)"/>
</g>
<defs>
<filter id="filter0_d_0_5022" x="0" y="0" width="262" height="184" filterUnits="userSpaceOnUse" color-interpolation-filters="sRGB">
<feFlood flood-opacity="0" result="BackgroundImageFix"/>
<feColorMatrix in="SourceAlpha" type="matrix" values="0 0 0 0 0 0 0 0 0 0 0 0 0 0 0 0 0 0 127 0" result="hardAlpha"/>
<feOffset dy="3"/>
<feGaussianBlur stdDeviation="4"/>
<feComposite in2="hardAlpha" operator="out"/>
<feColorMatrix type="matrix" values="0 0 0 0 0 0 0 0 0 0 0 0 0 0 0 0 0 0 0.12 0"/>
<feBlend mode="normal" in2="BackgroundImageFix" result="effect1_dropShadow_0_5022"/>
<feBlend mode="normal" in="SourceGraphic" in2="effect1_dropShadow_0_5022" result="shape"/>
</filter>
</defs>
</svg>
